<?xml version="1.0" encoding="utf-8"?>
<!-- Generator: Adobe Illustrator 19.0.0, SVG Export Plug-In . SVG Version: 6.00 Build 0)  -->
<svg version="1.1" id="Capa_1" xmlns="http://www.w3.org/2000/svg" xmlns:xlink="http://www.w3.org/1999/xlink" x="0px" y="0px"
	 viewBox="0 0 30 30" enable-background="new 0 0 30 30" xml:space="preserve">
<g id="XMLID_434_">
	<path id="XMLID_438_" fill="#FFFFFF" d="M20.306,6.532H9.694c-2.044,0-3.707,1.663-3.707,3.707s1.663,3.707,3.707,3.707h2.699
		v2.995l-0.132-0.111c-0.651-0.547-1.671-0.502-2.272,0.099c-0.63,0.63-0.589,1.632,0.096,2.207l2.308,1.936v1.866
		c0,0.292,0.236,0.528,0.528,0.528h6.338c0.292,0,0.528-0.236,0.528-0.528v-5.935c0-0.798-0.597-1.474-1.389-1.572l-2.837-0.353
		v-1.133h4.745c2.044,0,3.707-1.663,3.707-3.707S22.35,6.532,20.306,6.532L20.306,6.532z M13.449,22.411v-1.056h5.281v1.056H13.449z
		 M18.268,16.481c0.264,0.033,0.463,0.258,0.463,0.524v3.294h-5.617l-2.349-1.971c-0.209-0.175-0.221-0.458-0.028-0.651
		c0.216-0.216,0.612-0.234,0.846-0.037l0.999,0.839c0.343,0.288,0.868,0.044,0.868-0.405v-6.753c0-0.291,0.237-0.528,0.528-0.528
		s0.528,0.237,0.528,0.528v4.225c0,0.266,0.198,0.491,0.463,0.524L18.268,16.481z M20.306,12.89h-4.745v-1.569
		c0-0.874-0.711-1.584-1.584-1.584s-1.584,0.711-1.584,1.584v1.569H9.694c-1.462,0-2.651-1.189-2.651-2.651s1.189-2.651,2.651-2.651
		h10.613c1.462,0,2.651,1.189,2.651,2.651S21.768,12.89,20.306,12.89L20.306,12.89z"/>
	<path id="XMLID_435_" fill="#FFFFFF" d="M19.904,9.717l-1.739,1.739l-0.683-0.683c-0.206-0.206-0.541-0.206-0.747,0
		c-0.206,0.206-0.206,0.541,0,0.747l1.056,1.056c0.206,0.206,0.541,0.206,0.747,0l2.113-2.113c0.206-0.206,0.206-0.541,0-0.747
		C20.445,9.511,20.111,9.511,19.904,9.717L19.904,9.717z"/>
</g>
<g id="XMLID_457_">
	<path id="XMLID_466_" fill="#FFFFFF" d="M67.379,18.818l-0.184-0.457c-0.188-0.466-0.634-0.768-1.136-0.768h-1.292
		c0.268-0.247,0.464-0.557,0.573-0.91l0.664-2.152c0.211-0.057,0.389-0.196,0.496-0.39c0.118-0.213,0.133-0.465,0.042-0.691
		l-0.184-0.457c-0.188-0.466-0.634-0.768-1.136-0.768h-1.013c-0.151,0-0.274,0.123-0.274,0.274s0.123,0.274,0.274,0.274h1.013
		c0.278,0,0.524,0.166,0.627,0.424l0.184,0.457c0.033,0.081,0.023,0.17-0.026,0.242c-0.049,0.072-0.127,0.114-0.215,0.114H57.57
		c-0.088,0-0.166-0.042-0.215-0.114c-0.049-0.072-0.058-0.16-0.025-0.242l0.184-0.457c0.104-0.258,0.35-0.424,0.627-0.424h5.405
		c0.151,0,0.274-0.123,0.274-0.274s-0.123-0.274-0.274-0.274h-5.405c-0.503,0-0.949,0.301-1.136,0.768L56.82,13.45
		c-0.091,0.226-0.076,0.478,0.042,0.691c0.107,0.194,0.285,0.333,0.496,0.39l0.664,2.152c0.109,0.352,0.305,0.663,0.573,0.91h-1.292
		c-0.503,0-0.949,0.301-1.136,0.768l-0.184,0.457c-0.091,0.226-0.076,0.478,0.042,0.691c0.107,0.194,0.285,0.333,0.496,0.39
		l0.664,2.152c0.131,0.425,0.39,0.79,0.748,1.054c0.358,0.264,0.783,0.404,1.228,0.404h5.042c0.445,0,0.87-0.14,1.228-0.404
		c0.358-0.264,0.617-0.629,0.748-1.054l0.664-2.152c0.211-0.057,0.389-0.196,0.496-0.39C67.454,19.296,67.469,19.044,67.379,18.818z
		 M58.546,16.521l-0.605-1.962h7.479l-0.605,1.962c-0.198,0.641-0.781,1.071-1.451,1.071h-3.366
		C59.327,17.593,58.744,17.162,58.546,16.521z M59.208,19.653c0,0.151,0.123,0.274,0.274,0.274h6.775l-0.605,1.962
		c-0.198,0.641-0.781,1.071-1.451,1.071H59.16c-0.671,0-1.254-0.431-1.451-1.071l-0.605-1.962h1.717
		c0.151,0,0.274-0.123,0.274-0.274c0-0.151-0.123-0.274-0.274-0.274h-2.089c-0.088,0-0.166-0.042-0.215-0.114
		c-0.049-0.073-0.058-0.161-0.026-0.242l0.184-0.457c0.104-0.258,0.35-0.424,0.627-0.424h8.756c0.278,0,0.524,0.166,0.627,0.424
		l0.184,0.457c0.033,0.081,0.023,0.17-0.026,0.242c-0.049,0.072-0.127,0.114-0.215,0.114h-7.147
		C59.331,19.378,59.208,19.501,59.208,19.653z"/>
	<g id="XMLID_458_">
		<g id="XMLID_459_">
			<path id="XMLID_460_" fill="#FFFFFF" d="M60.673,10.358h-3.48V8.425c0-0.103-0.041-0.201-0.113-0.273l-1.547-1.547
				c-0.073-0.073-0.171-0.113-0.273-0.113h-5.414c-0.103,0-0.201,0.041-0.273,0.113l-1.547,1.547
				c-0.073,0.073-0.113,0.171-0.113,0.273v1.933h-3.48c-0.214,0-0.387,0.173-0.387,0.387v11.214c0,0.853,0.694,1.547,1.547,1.547
				h13.901l-1.169-0.773H45.592c-0.426,0-0.773-0.347-0.773-0.773V11.131h15.468v1.144h0.773v-1.531
				C61.06,10.531,60.887,10.358,60.673,10.358z M49.459,10.358h-0.773V8.585l0.773-0.773V10.358z M54.873,10.358h-4.64V8.811h4.64
				V10.358z M54.873,8.038h-4.64V7.264h4.64V8.038z M56.419,10.358h-0.773V7.811l0.773,0.773V10.358z"/>
		</g>
	</g>
</g>
<g id="XMLID_385_">
	<g id="XMLID_400_">
		<g id="XMLID_418_">
			<g id="XMLID_419_">
				<path id="XMLID_420_" fill="#FFFFFF" d="M-89.461,4.452h-7.911c-3.64,0-6.592,2.952-6.592,6.592v7.911
					c0,3.64,2.952,6.592,6.592,6.592h7.911c3.64,0,6.592-2.952,6.592-6.592v-7.911C-82.868,7.404-85.82,4.452-89.461,4.452z
					 M-84.846,18.955c0,2.545-2.07,4.615-4.615,4.615h-7.911c-2.545,0-4.615-2.07-4.615-4.615v-7.911
					c0-2.545,2.07-4.615,4.615-4.615h7.911c2.545,0,4.615,2.07,4.615,4.615V18.955z"/>
			</g>
		</g>
		<g id="XMLID_412_">
			<g id="XMLID_413_">
				<path id="XMLID_415_" fill="#FFFFFF" d="M-93.416,9.726c-2.913,0-5.274,2.361-5.274,5.274s2.361,5.274,5.274,5.274
					c2.912,0,5.274-2.361,5.274-5.274S-90.503,9.726-93.416,9.726z M-93.416,18.296c-1.817,0-3.296-1.479-3.296-3.296
					c0-1.818,1.479-3.296,3.296-3.296S-90.12,13.182-90.12,15C-90.12,16.817-91.599,18.296-93.416,18.296z"/>
			</g>
		</g>
		<g id="XMLID_403_">
			<g id="XMLID_406_">
				<circle id="XMLID_408_" fill="#FFFFFF" cx="-87.746" cy="9.331" r="0.703"/>
			</g>
		</g>
	</g>
</g>
<g id="XMLID_386_">
	<path id="XMLID_398_" fill="#FFFFFF" d="M54.843,25.414c-0.088,0.014-0.176,0.028-0.265,0.04
		C54.667,25.442,54.755,25.428,54.843,25.414z"/>
	<path id="XMLID_397_" fill="#FFFFFF" d="M55.054,25.378c-0.042,0.008-0.084,0.015-0.126,0.022
		C54.97,25.393,55.012,25.386,55.054,25.378z"/>
	<path id="XMLID_396_" fill="#FFFFFF" d="M54.343,25.483c-0.103,0.012-0.206,0.022-0.31,0.031
		C54.137,25.505,54.24,25.494,54.343,25.483z"/>
	<path id="XMLID_395_" fill="#FFFFFF" d="M54.546,25.458c-0.049,0.007-0.099,0.013-0.149,0.019
		C54.446,25.471,54.496,25.465,54.546,25.458z"/>
	<path id="XMLID_394_" fill="#FFFFFF" d="M55.342,25.321c-0.037,0.008-0.074,0.016-0.111,0.023
		C55.267,25.337,55.305,25.329,55.342,25.321z"/>
	<path id="XMLID_393_" fill="#FFFFFF" d="M56.055,25.144c-0.03,0.009-0.06,0.017-0.09,0.025
		C55.995,25.16,56.025,25.152,56.055,25.144z"/>
	<path id="XMLID_392_" fill="#FFFFFF" d="M55.839,25.203c-0.033,0.009-0.065,0.017-0.098,0.025
		C55.774,25.22,55.806,25.211,55.839,25.203z"/>
	<path id="XMLID_391_" fill="#FFFFFF" d="M55.557,25.273c-0.034,0.008-0.069,0.016-0.104,0.023
		C55.488,25.289,55.522,25.281,55.557,25.273z"/>
	<path id="XMLID_390_" fill="#FFFFFF" d="M54.029,25.514c-0.056,0.005-0.111,0.009-0.167,0.013
		C53.918,25.523,53.974,25.518,54.029,25.514z"/>
	<path id="XMLID_389_" fill="#FFFFFF" d="M63.693,15c0-5.826-4.725-10.551-10.551-10.551S42.591,9.174,42.591,15
		s4.725,10.551,10.551,10.551c0.062,0,0.124-0.001,0.185-0.002v-8.214h-2.267v-2.642h2.267v-1.944c0-2.255,1.376-3.482,3.388-3.482
		c0.963,0,1.791,0.072,2.032,0.104v2.356h-1.387c-1.094,0-1.306,0.52-1.306,1.283v1.683h2.616l-0.341,2.642h-2.275v7.809
		C60.465,23.879,63.693,19.816,63.693,15z"/>
	<path id="XMLID_388_" fill="#FFFFFF" d="M53.839,25.528c-0.11,0.007-0.22,0.013-0.331,0.016
		C53.619,25.541,53.729,25.535,53.839,25.528z"/>
	<path id="XMLID_387_" fill="#FFFFFF" d="M53.503,25.545c-0.058,0.002-0.117,0.003-0.175,0.004
		C53.386,25.548,53.445,25.546,53.503,25.545z"/>
</g>
<g id="XMLID_360_">
	<g id="XMLID_361_">
		<g id="XMLID_362_">
			<path id="XMLID_367_" fill="#FFFFFF" d="M70.484,7.431h-1.907V7.183c0-0.212-0.172-0.383-0.383-0.383h-1.26
				c-0.002-0.89-0.726-1.613-1.617-1.613s-1.615,0.723-1.617,1.613h-1.26c-0.212,0-0.383,0.172-0.383,0.383v0.248h-1.907
				c-0.762,0-1.382,0.62-1.382,1.382v14.62c0,0.378,0,1.382,0.998,1.382h10.716c0.762,0,1.382-0.62,1.382-1.382V8.812
				C71.866,8.05,71.246,7.431,70.484,7.431L70.484,7.431z M62.44,9.884c0,0,0.001,0,0.001,0h5.753c0,0,0.001,0,0.001,0h1.217v12.476
				h-8.189V9.884L62.44,9.884z M64.144,7.566c0.123,0,0.238-0.059,0.31-0.158c0.072-0.099,0.092-0.227,0.055-0.344
				c-0.027-0.084-0.041-0.172-0.041-0.262c0-0.469,0.381-0.85,0.85-0.85s0.85,0.381,0.85,0.85c0,0.09-0.014,0.178-0.041,0.262
				c-0.038,0.117-0.017,0.244,0.055,0.344c0.072,0.099,0.187,0.158,0.31,0.158h1.319v1.551h-4.986V7.566H64.144z M71.099,23.432
				c0,0.339-0.276,0.615-0.615,0.615H59.768c-0.133,0-0.149-0.033-0.167-0.072c-0.057-0.122-0.064-0.354-0.064-0.543V8.812
				c0-0.339,0.276-0.615,0.615-0.615h1.907v0.92H60.84c-0.212,0-0.383,0.172-0.383,0.383v13.243c0,0.212,0.172,0.383,0.383,0.383
				h8.956c0.212,0,0.383-0.172,0.383-0.383V9.501c0-0.212-0.172-0.383-0.383-0.383h-1.218v-0.92h1.907
				c0.339,0,0.615,0.276,0.615,0.615V23.432z"/>
			<path id="XMLID_366_" fill="#FFFFFF" d="M62.573,17.255h5.693c0.212,0,0.383-0.172,0.383-0.383s-0.172-0.383-0.383-0.383h-5.693
				c-0.212,0-0.383,0.172-0.383,0.383S62.361,17.255,62.573,17.255L62.573,17.255z"/>
			<path id="XMLID_365_" fill="#FFFFFF" d="M62.573,18.779h5.693c0.212,0,0.383-0.172,0.383-0.383c0-0.212-0.172-0.383-0.383-0.383
				h-5.693c-0.212,0-0.383,0.172-0.383,0.383C62.189,18.607,62.361,18.779,62.573,18.779L62.573,18.779z"/>
			<path id="XMLID_364_" fill="#FFFFFF" d="M62.573,13.843h5.693c0.212,0,0.383-0.172,0.383-0.383c0-0.212-0.172-0.383-0.383-0.383
				h-5.693c-0.212,0-0.383,0.172-0.383,0.383C62.189,13.672,62.361,13.843,62.573,13.843L62.573,13.843z"/>
			<path id="XMLID_363_" fill="#FFFFFF" d="M62.573,15.367h5.693c0.212,0,0.383-0.172,0.383-0.383c0-0.212-0.172-0.383-0.383-0.383
				h-5.693c-0.212,0-0.383,0.172-0.383,0.383C62.189,15.195,62.361,15.367,62.573,15.367L62.573,15.367z"/>
		</g>
	</g>
</g>
<g id="Page-1_1_">
	<path id="XMLID_241_" d="M45.465,7.479l1.785,2.772l-1.12,1.119c-0.337,0.334-0.502,0.815-0.441,1.284
		c0.093,0.73,0.509,2.629,2.36,4.481c1.852,1.852,3.751,2.267,4.479,2.36c0.065,0.008,0.131,0.013,0.196,0.013
		c0.406,0,0.803-0.165,1.087-0.451l1.121-1.121l2.771,1.784l-1.354,2.874c-2.35-0.294-5.753-1.359-9.077-4.683
		c-3.325-3.325-4.39-6.729-4.683-9.077L45.465,7.479 M45.595,6.432c-0.089,0-0.18,0.02-0.264,0.063L41.944,8.09
		c-0.221,0.109-0.35,0.343-0.325,0.588c0.177,1.686,0.912,5.83,4.985,9.902c4.072,4.073,8.216,4.807,9.902,4.985
		c0.02,0.002,0.04,0.003,0.06,0.003c0.222,0,0.428-0.126,0.528-0.328l1.595-3.387c0.136-0.272,0.043-0.603-0.214-0.765l-3.276-2.109
		c-0.097-0.061-0.206-0.09-0.314-0.09c-0.153,0-0.304,0.059-0.418,0.173l-1.324,1.325c-0.111,0.112-0.261,0.174-0.417,0.174
		c-0.025,0-0.05-0.002-0.075-0.005c-0.656-0.083-2.293-0.453-3.93-2.09s-2.007-3.274-2.09-3.93
		c-0.023-0.181,0.039-0.363,0.169-0.492l1.325-1.324c0.195-0.195,0.229-0.498,0.083-0.732l-2.11-3.276
		C45.986,6.532,45.793,6.432,45.595,6.432L45.595,6.432z"/>
</g>
<g id="XMLID_233_">
	<path id="XMLID_238_" d="M54.529,23.902c-2.108,0-4.152-0.75-5.757-2.112c-0.377-0.32-0.73-0.674-1.05-1.053
		c-1.351-1.602-2.095-3.639-2.095-5.738c0-2.378,0.926-4.613,2.607-6.295s3.917-2.607,6.295-2.607s4.613,0.926,6.295,2.607
		s2.607,3.917,2.607,6.295c0,2.099-0.744,4.136-2.095,5.738c-0.32,0.379-0.674,0.733-1.051,1.053
		C58.682,23.152,56.637,23.902,54.529,23.902L54.529,23.902z M54.529,7.21c-4.295,0-7.79,3.494-7.79,7.79
		c0,1.836,0.651,3.619,1.833,5.02c0.28,0.332,0.59,0.642,0.92,0.922c1.404,1.191,3.192,1.847,5.037,1.847s3.633-0.656,5.037-1.847
		c0.33-0.28,0.64-0.59,0.92-0.922c1.182-1.401,1.833-3.184,1.833-5.02C62.319,10.705,58.824,7.21,54.529,7.21L54.529,7.21z"/>
	<path id="XMLID_235_" d="M54.529,15c-1.841,0-3.338-1.498-3.338-3.338s1.498-3.338,3.338-3.338s3.338,1.498,3.338,3.338
		S56.37,15,54.529,15z M54.529,9.436c-1.227,0-2.226,0.998-2.226,2.226s0.998,2.226,2.226,2.226s2.226-0.998,2.226-2.226
		S55.757,9.436,54.529,9.436z"/>
	<path id="XMLID_234_" d="M59.926,21.923c-0.045,0-0.09-0.005-0.136-0.017c-0.298-0.075-0.479-0.377-0.404-0.675
		c0.1-0.398,0.151-0.81,0.151-1.224c0-2.722-2.213-4.968-4.934-5.007l-0.073,0l-0.073,0c-2.721,0.039-4.934,2.285-4.934,5.007
		c0,0.414,0.051,0.826,0.151,1.224c0.075,0.298-0.106,0.6-0.404,0.675c-0.298,0.075-0.6-0.106-0.675-0.404
		c-0.122-0.486-0.184-0.989-0.184-1.494c0-1.62,0.627-3.147,1.764-4.299c1.137-1.152,2.653-1.798,4.269-1.821
		c0.003,0,0.005,0,0.008,0l0.079,0l0.079,0c0.003,0,0.005,0,0.008,0c1.617,0.023,3.133,0.669,4.269,1.821
		c1.138,1.153,1.764,2.679,1.764,4.299c0,0.505-0.062,1.008-0.184,1.494C60.402,21.755,60.176,21.923,59.926,21.923z"/>
</g>
<g id="XMLID_224_">
	<g id="XMLID_226_">
		<path id="XMLID_227_" d="M75.361,7.569L60.266,8.481C59.38,8.534,58.7,9.3,58.754,10.188l0.648,10.731
			c0.053,0.884,0.817,1.566,1.707,1.512l15.094-0.912c0.884-0.053,1.566-0.817,1.512-1.707L77.068,9.082
			C77.014,8.197,76.251,7.516,75.361,7.569z M75.203,8.656l-6.851,7.731L60.559,9.54L75.203,8.656z M60.462,20.631L59.84,10.34
			l5.477,4.811L60.462,20.631z M61.266,21.344l4.859-5.483l1.92,1.687c0.222,0.195,0.561,0.174,0.757-0.047l1.66-1.873l5.454,4.832
			L61.266,21.344z M76.629,19.655l-5.454-4.832l4.832-5.454L76.629,19.655z"/>
	</g>
</g>
</svg>
